<svg width="95" height="56" viewBox="0 0 95 56" fill="none" xmlns="http://www.w3.org/2000/svg">
<path fill-rule="evenodd" clip-rule="evenodd" d="M0.251953 5.32877V0.419922H32.2852V0.470353H94.458V55.2719H16.1006V55.2717H0.251953V50.3628H0.821582C1.44147 50.3628 1.94408 49.8602 1.94408 49.2403C1.94408 48.6205 1.44147 48.1178 0.821582 48.1178H0.251953V46.0404H0.821582C1.44147 46.0404 1.94408 45.5378 1.94408 44.9179C1.94408 44.298 1.44147 43.7954 0.821582 43.7954H0.251953V41.7179H0.821582C1.44147 41.7179 1.94408 41.2153 1.94408 40.5954C1.94408 39.9755 1.44147 39.4729 0.821582 39.4729H0.251953V37.3954H0.821582C1.44147 37.3954 1.94408 36.8928 1.94408 36.2729C1.94408 35.6531 1.44147 35.1504 0.821582 35.1504H0.251953V33.4248C3.33465 33.4248 5.83096 30.9285 5.83096 27.8458C5.83096 24.7631 3.33465 22.2668 0.251953 22.2668V20.5412H0.821582C1.44147 20.5412 1.94408 20.0386 1.94408 19.4187C1.94408 18.7988 1.44147 18.2962 0.821582 18.2962H0.251953V16.2187H0.821582C1.44147 16.2187 1.94408 15.7161 1.94408 15.0962C1.94408 14.4763 1.44147 13.9737 0.821582 13.9737H0.251953V11.8962H0.821582C1.44147 11.8962 1.94408 11.3936 1.94408 10.7737C1.94408 10.1538 1.44147 9.65124 0.821582 9.65124H0.251953V7.57377H0.821582C1.44147 7.57377 1.94408 7.07116 1.94408 6.45127C1.94408 5.83138 1.44147 5.32877 0.821582 5.32877H0.251953Z" fill="#E1E5EB"/>
</svg>
