<svg width="15" height="15" viewBox="0 0 15 15" fill="none" xmlns="http://www.w3.org/2000/svg">
<path d="M2.0589 6.39261L1.86876 6.94409L2.0589 6.39261ZM2.0589 9.15068L1.86876 8.59921L2.0589 9.15068ZM13.3578 9.15068L13.1676 9.70216L13.3578 9.15068ZM13.3578 6.39261L13.1676 5.84114L13.3578 6.39261ZM4.20833 2.52165C2.5975 2.52165 1.29167 3.82748 1.29167 5.43831H2.45833C2.45833 4.47181 3.24183 3.68831 4.20833 3.68831V2.52165ZM11.2083 2.52165H4.20833V3.68831H11.2083V2.52165ZM14.125 5.43831C14.125 3.82748 12.8192 2.52165 11.2083 2.52165V3.68831C12.1748 3.68831 12.9583 4.47182 12.9583 5.43831H14.125ZM14.125 6.15176V5.43831H12.9583V6.15176H14.125ZM12.9583 7.77165C12.9583 7.38921 13.204 7.06265 13.5479 6.94409L13.1676 5.84114C12.3677 6.11695 11.7917 6.87628 11.7917 7.77165H12.9583ZM13.5479 8.59921C13.204 8.48064 12.9583 8.15408 12.9583 7.77165H11.7917C11.7917 8.66702 12.3677 9.42634 13.1676 9.70216L13.5479 8.59921ZM14.125 10.105V9.39154H12.9583V10.105H14.125ZM11.2083 13.0216C12.8192 13.0216 14.125 11.7158 14.125 10.105H12.9583C12.9583 11.0715 12.1748 11.855 11.2083 11.855V13.0216ZM4.20834 13.0216H11.2083V11.855H4.20834V13.0216ZM1.29167 10.105C1.29167 11.7158 2.59751 13.0216 4.20834 13.0216V11.855C3.24184 11.855 2.45833 11.0715 2.45833 10.105H1.29167ZM1.29167 9.39154V10.105H2.45833V9.39154H1.29167ZM2.24904 9.70216C3.04899 9.42634 3.625 8.66702 3.625 7.77165H2.45833C2.45833 8.15408 2.21264 8.48064 1.86876 8.59921L2.24904 9.70216ZM3.625 7.77165C3.625 6.87628 3.04899 6.11695 2.24904 5.84114L1.86876 6.94409C2.21264 7.06265 2.45833 7.38921 2.45833 7.77165H3.625ZM1.29167 5.43831V6.15176H2.45833V5.43831H1.29167ZM2.24904 5.84114C2.33597 5.87111 2.45833 5.97081 2.45833 6.15176H1.29167C1.29167 6.55466 1.572 6.84177 1.86876 6.94409L2.24904 5.84114ZM2.45833 9.39154C2.45833 9.57249 2.33597 9.67218 2.24904 9.70216L1.86876 8.59921C1.572 8.70152 1.29167 8.98864 1.29167 9.39154H2.45833ZM13.1676 9.70216C13.0807 9.67218 12.9583 9.57249 12.9583 9.39154H14.125C14.125 8.98864 13.8447 8.70152 13.5479 8.59921L13.1676 9.70216ZM12.9583 6.15176C12.9583 5.97081 13.0807 5.87111 13.1676 5.84114L13.5479 6.94409C13.8447 6.84177 14.125 6.55466 14.125 6.15176H12.9583Z"/>
<circle cx="6.4248" cy="6.48766" r="0.664892" transform="rotate(45 6.4248 6.48766)" />
<circle cx="8.99316" cy="9.05602" r="0.664892" transform="rotate(45 8.99316 9.05602)" />
<path d="M6.40271 9.07776L9.01465 6.46582" stroke-width="1.16667" stroke-linecap="round" stroke-linejoin="round"/>
</svg>
