<svg width="15" height="15" viewBox="0 0 15 15" fill="none" xmlns="http://www.w3.org/2000/svg">
<g clip-path="url(#clip0_2908_1388)">
<path d="M3.04102 7.18701V11.8537C3.04102 12.498 3.56335 13.0203 4.20768 13.0203H11.2077C11.852 13.0203 12.3743 12.498 12.3743 11.8537V7.18701" stroke="#7E8494" stroke-width="1.16667" stroke-linecap="round" stroke-linejoin="round"/>
<path d="M4.20801 3.39535C4.20801 2.58993 4.86093 1.93701 5.66634 1.93701V1.93701C6.79392 1.93701 7.70801 2.8511 7.70801 3.97868V4.85368H5.66634C4.86093 4.85368 4.20801 4.20076 4.20801 3.39535V3.39535Z" stroke="#7E8494" stroke-width="1.16667" stroke-linejoin="round"/>
<path d="M11.208 3.39535C11.208 2.58993 10.5551 1.93701 9.74967 1.93701V1.93701C8.62209 1.93701 7.70801 2.8511 7.70801 3.97868V4.85368H9.74967C10.5551 4.85368 11.208 4.20076 11.208 3.39535V3.39535Z" stroke="#7E8494" stroke-width="1.16667" stroke-linejoin="round"/>
<path d="M2.45801 4.85449H12.958V7.18783H2.45801V4.85449Z" stroke="#7E8494" stroke-width="1.16667" stroke-linecap="round" stroke-linejoin="round"/>
<path d="M7.70801 7.18701V13.0203" stroke="#7E8494" stroke-width="1.16667" stroke-linecap="round" stroke-linejoin="round"/>
</g>
<defs>
<clipPath id="clip0_2908_1388">
<rect width="14" height="14" fill="white" transform="translate(0.708008 0.771484)"/>
</clipPath>
</defs>
</svg>
