<svg width="23" height="24" viewBox="0 0 23 24" fill="none" xmlns="http://www.w3.org/2000/svg">
<path fill-rule="evenodd" clip-rule="evenodd" d="M2.12524 8.24994C2.12524 6.17887 3.80418 4.49994 5.87524 4.49994H17.1252C19.1963 4.49994 20.8752 6.17887 20.8752 8.24994V8.82703C20.8752 8.99511 20.7624 9.1404 20.6056 9.20104C19.4835 9.63517 18.6877 10.7246 18.6877 11.9999C18.6877 13.2753 19.4835 14.3647 20.6056 14.7988C20.7624 14.8595 20.8752 15.0048 20.8752 15.1728V15.7499C20.8752 17.821 19.1963 19.4999 17.1252 19.4999H5.87524C3.80418 19.4999 2.12524 17.821 2.12524 15.7499V15.0346C2.12524 14.8819 2.21902 14.7463 2.35528 14.6772C3.33132 14.1822 4.00024 13.1692 4.00024 11.9999C4.00024 10.8307 3.33132 9.81765 2.35528 9.32267C2.21902 9.25357 2.12524 9.11802 2.12524 8.96525V8.24994Z" fill="white"/>
<path d="M2.35528 9.32267L2.7793 8.48655L2.35528 9.32267ZM2.35528 14.6772L1.93125 13.8411L2.35528 14.6772ZM20.6056 14.7988L20.2673 15.6732L20.6056 14.7988ZM20.6056 9.20104L20.9439 10.0754L20.6056 9.20104ZM5.87524 3.56244C3.28641 3.56244 1.18774 5.6611 1.18774 8.24994H3.06274C3.06274 6.69664 4.32194 5.43744 5.87524 5.43744V3.56244ZM17.1252 3.56244H5.87524V5.43744H17.1252V3.56244ZM21.8127 8.24994C21.8127 5.6611 19.7141 3.56244 17.1252 3.56244V5.43744C18.6785 5.43744 19.9377 6.69664 19.9377 8.24994H21.8127ZM21.8127 8.82703V8.24994H19.9377V8.82703H21.8127ZM19.6252 11.9999C19.6252 11.1246 20.1709 10.3745 20.9439 10.0754L20.2673 8.3267C18.7962 8.89588 17.7502 10.3246 17.7502 11.9999H19.6252ZM20.9439 13.9245C20.1709 13.6254 19.6252 12.8752 19.6252 11.9999H17.7502C17.7502 13.6753 18.7962 15.104 20.2673 15.6732L20.9439 13.9245ZM21.8127 15.7499V15.1728H19.9377V15.7499H21.8127ZM17.1252 20.4374C19.7141 20.4374 21.8127 18.3388 21.8127 15.7499H19.9377C19.9377 17.3032 18.6785 18.5624 17.1252 18.5624V20.4374ZM5.87524 20.4374H17.1252V18.5624H5.87524V20.4374ZM1.18774 15.7499C1.18774 18.3388 3.28641 20.4374 5.87524 20.4374V18.5624C4.32194 18.5624 3.06274 17.3032 3.06274 15.7499H1.18774ZM1.18774 15.0346V15.7499H3.06274V15.0346H1.18774ZM2.7793 15.5133C4.05805 14.8648 4.93774 13.5359 4.93774 11.9999H3.06274C3.06274 12.8025 2.60459 13.4996 1.93125 13.8411L2.7793 15.5133ZM4.93774 11.9999C4.93774 10.4639 4.05805 9.13503 2.7793 8.48655L1.93125 10.1588C2.60459 10.5003 3.06274 11.1974 3.06274 11.9999H4.93774ZM1.18774 8.24994V8.96525H3.06274V8.24994H1.18774ZM2.7793 8.48655C2.91723 8.55649 3.06274 8.7213 3.06274 8.96525H1.18774C1.18774 9.51475 1.52082 9.95066 1.93125 10.1588L2.7793 8.48655ZM3.06274 15.0346C3.06274 15.2786 2.91723 15.4434 2.7793 15.5133L1.93125 13.8411C1.52082 14.0492 1.18774 14.4851 1.18774 15.0346H3.06274ZM20.2673 15.6732C20.1123 15.6132 19.9377 15.4423 19.9377 15.1728H21.8127C21.8127 14.5672 21.4124 14.1058 20.9439 13.9245L20.2673 15.6732ZM19.9377 8.82703C19.9377 8.55755 20.1123 8.38669 20.2673 8.3267L20.9439 10.0754C21.4124 9.8941 21.8127 9.43267 21.8127 8.82703H19.9377Z" fill="white"/>
<circle cx="9.43652" cy="9.93649" r="1.06858" transform="rotate(45 9.43652 9.93649)" fill="#FD5345"/>
<circle cx="13.5647" cy="14.0641" r="1.06858" transform="rotate(45 13.5647 14.0641)" fill="#FD5345"/>
<path d="M9.40136 14.0989L13.5991 9.90112" stroke="#FD5244" stroke-width="1.875" stroke-linecap="round" stroke-linejoin="round"/>
</svg>
