<svg width="15" height="20" viewBox="0 0 15 20" fill="none" xmlns="http://www.w3.org/2000/svg">
<path d="M11.5958 15.3973C10.3385 16.1332 8.89729 16.5625 7.3334 16.5625C5.80018 16.5625 4.32829 16.1332 3.07105 15.3973L1.5685 18.3104C1.38451 18.6784 1.66049 19.1383 2.05913 19.1383H12.6077C13.037 19.1383 13.313 18.6784 13.0983 18.3104L11.5958 15.3973Z" fill="white"/>
<path d="M5.46275 9.29503C5.37076 9.11104 5.27877 8.92705 5.21744 8.7124H0.0351562C0.157814 10.3376 0.801766 11.8095 1.78303 12.9441L5.46275 9.29503Z" fill="white"/>
<path d="M5.46275 7.05653L1.78303 3.40747C0.771101 4.57272 0.157814 6.04461 0.0351562 7.63916H5.21744C5.27877 7.42451 5.3401 7.24052 5.46275 7.05653Z" fill="white"/>
<path d="M9.20361 9.29503L12.8527 12.9441C13.8646 11.7788 14.4779 10.307 14.6005 8.7124H9.44893C9.3876 8.92705 9.29561 9.11104 9.20361 9.29503Z" fill="white"/>
<path d="M9.44893 7.63916H14.6312C14.5086 6.01394 13.8646 4.54205 12.8833 3.40747L9.20361 7.05653C9.29561 7.24052 9.3876 7.42451 9.44893 7.63916Z" fill="white"/>
<path d="M8.43711 10.0616C8.25313 10.1536 8.06914 10.2456 7.85449 10.307V15.4892C9.47971 15.3666 10.9516 14.7226 12.0862 13.7414L8.43711 10.0616Z" fill="white"/>
<path d="M2.5498 13.7107C3.71505 14.7227 5.18694 15.3359 6.78149 15.4586V10.2763C6.56684 10.215 6.38285 10.1537 6.19887 10.031L2.5498 13.7107Z" fill="white"/>
<path d="M6.19863 6.28931C6.38261 6.19731 6.5666 6.10532 6.78125 6.04399L6.78125 0.86171C5.15604 0.984367 3.68415 1.62832 2.54956 2.60958L6.19863 6.28931Z" fill="white"/>
<path d="M12.0864 2.64046C10.9212 1.62854 9.44929 1.01525 7.85474 0.892593L7.85474 6.07488C8.06939 6.13621 8.25338 6.19753 8.43736 6.32019L12.0864 2.64046Z" fill="white"/>
<path d="M8.43733 8.19108C8.43733 7.57779 7.9467 7.08716 7.33341 7.08716C6.72012 7.08716 6.22949 7.57779 6.22949 8.19108C6.22949 8.80436 6.72012 9.29499 7.33341 9.29499C7.9467 9.29499 8.43733 8.80436 8.43733 8.19108Z" fill="white"/>
</svg>
