<svg width="54" height="16" viewBox="0 0 54 16" fill="none" xmlns="http://www.w3.org/2000/svg">
<g clip-path="url(#clip0_1297_29111)">
<path d="M0.200195 8.07272C0.200195 4.09263 3.44264 0.836197 7.40563 0.836197L46.2349 0.836196C50.1979 0.836196 53.4404 4.09263 53.4404 8.07272C53.4404 12.0528 50.1979 15.3092 46.2349 15.3093L0.200196 15.3093L0.200195 8.07272Z" fill="#FF680A"/>
<path d="M21.5762 6.06254L24.0981 6.06254L24.0981 11.2487L25.2589 11.2487L25.2589 6.06254L27.7809 6.06254L27.7809 5.05746L21.5762 5.05746L21.5762 6.06254Z" fill="white"/>
<path d="M12.4893 10.2034L12.0089 10.2034L12.0089 5.01723L10.808 5.01723L10.808 10.2034L7.08518 10.2034L7.08518 5.01723L5.88428 5.01723L5.88428 10.6456C5.88428 10.9673 6.16449 11.2487 6.48473 11.2487L11.9689 11.2487L11.9689 12.1733L13.0897 12.1733L13.0897 10.8467C13.0897 10.8467 13.0897 10.8467 13.0897 10.8064C13.0897 10.8064 13.0897 10.8064 13.0897 10.7662C13.0497 10.4446 12.7695 10.2034 12.4893 10.2034Z" fill="white"/>
<path d="M19.9748 5.05745C19.9748 5.05745 19.5745 4.97704 19.2542 5.33887L15.3713 9.31896L15.3713 5.01724L14.1704 5.01724L14.1704 10.7663C14.1704 11.0879 14.5307 11.3693 14.7709 11.3693C15.011 11.3693 15.0511 11.3291 15.1712 11.2085C15.2112 11.2085 15.2112 11.1683 15.2512 11.1281L19.4144 6.90678L19.4144 11.2085L20.6153 11.2085L20.6153 5.62029C20.5752 5.29866 20.295 5.05745 19.9748 5.05745Z" fill="white"/>
<path d="M46.2348 9.2385C46.1547 9.39932 46.0346 9.56013 45.9145 9.68074C45.7144 9.88175 45.5142 10.0426 45.274 10.123C45.0338 10.2436 44.7937 10.2838 44.4734 10.2838C44.1932 10.2838 43.913 10.2436 43.6728 10.123C43.4326 10.0024 43.2325 9.88175 43.0323 9.68074C42.8322 9.47972 42.6721 9.2385 42.592 8.99729C42.4719 8.75607 42.4319 8.47465 42.4719 8.11282C42.4719 7.7912 42.5119 7.50978 42.632 7.26856C42.7121 7.02734 42.8722 6.78613 43.0724 6.58511C43.2725 6.3841 43.4727 6.22328 43.7128 6.14288C43.953 6.02227 44.1932 5.98207 44.5135 5.98207C44.7937 5.98207 45.0739 6.02227 45.3141 6.14288C45.5542 6.26349 45.7544 6.3841 45.9545 6.58511L46.8752 5.86146L46.8752 5.82125C46.555 5.49963 46.2348 5.25841 45.8344 5.0976C45.4341 4.93679 45.0338 4.85638 44.5535 4.85638C44.1132 4.85638 43.6728 4.93679 43.2725 5.0976C42.8722 5.25841 42.552 5.49963 42.2317 5.82125C41.9115 6.14288 41.7113 6.4645 41.5512 6.86653C41.3911 7.26856 41.311 7.67059 41.311 8.15302C41.311 8.63546 41.3911 9.03749 41.5512 9.43952C41.7113 9.84155 41.9515 10.2034 42.2317 10.525C42.552 10.8466 42.8722 11.0878 43.2725 11.2487C43.6728 11.4095 44.0731 11.4899 44.5535 11.4899C44.9938 11.4899 45.4341 11.4095 45.8344 11.2487C46.2348 11.0878 46.555 10.8466 46.8752 10.525C47.0354 10.3642 47.1554 10.2034 47.2755 10.0426L46.2348 9.2385Z" fill="white"/>
<path d="M39.9901 5.01723L38.429 8.39427L36.4675 5.01723L35.1465 5.01723L37.8285 9.60036C37.5883 10.0426 37.148 10.324 36.6276 10.324C36.3074 10.324 36.0271 10.2436 35.7469 10.1632L35.7469 11.2487C35.9871 11.3693 36.3474 11.4095 36.8278 11.4095C37.7084 11.4095 38.469 10.8467 38.9894 9.72097L41.2711 5.05743L39.9901 5.05743L39.9901 5.01723Z" fill="white"/>
<path d="M32.1043 5.01723L29.4222 5.01723C29.102 5.01723 28.8218 5.29865 28.8218 5.62027L28.8218 11.2487L30.0227 11.2487L30.0227 9.27874L32.0642 9.27874C32.8648 9.27874 33.4653 9.07772 33.9056 8.67569C34.3459 8.27366 34.5861 7.75103 34.5861 7.10778C34.5861 6.46453 34.3459 5.9821 33.9056 5.58007C33.5053 5.21824 32.8648 5.01723 32.1043 5.01723ZM31.9842 8.23346L30.0227 8.23346L30.0227 6.0625L31.9842 6.0625C32.9049 6.0625 33.4253 6.46453 33.4253 7.14798C33.4253 7.83143 32.9049 8.23346 31.9842 8.23346Z" fill="white"/>
</g>
<defs>
<clipPath id="clip0_1297_29111">
<rect width="53.2402" height="14.4731" fill="white" transform="translate(0.200195 0.836197)"/>
</clipPath>
</defs>
</svg>
