<svg width="57" height="14" viewBox="0 0 57 14" fill="none" xmlns="http://www.w3.org/2000/svg">
<g clip-path="url(#clip0_1297_29071)">
<path d="M7.28871 0.233124L49.7028 0.236004C51.1791 0.233499 52.6121 0.734751 53.7649 1.65693C55.2646 2.84743 56.2002 4.7316 56.1882 6.65272C56.2203 8.23542 55.6217 9.8162 54.569 10.9957C53.3622 12.3806 51.5438 13.1818 49.711 13.1895L8.61939 13.1909C7.46489 13.1827 6.2835 13.2677 5.16308 12.9206C3.0653 12.3225 1.33523 10.5915 0.7515 8.48696C0.300261 6.97003 0.465395 5.30285 1.15474 3.88192C2.04377 2.03328 3.85833 0.668042 5.88075 0.329132C6.34495 0.250405 6.81875 0.233124 7.28823 0.233124H7.28871Z" fill="#43B02A"/>
<mask id="mask0_1297_29071" style="mask-type:luminance" maskUnits="userSpaceOnUse" x="0" y="0" width="57" height="14">
<path d="M7.28871 0.233124L49.7028 0.236004C51.1791 0.233499 52.6121 0.734751 53.7649 1.65693C55.2646 2.84743 56.2002 4.7316 56.1882 6.65272C56.2203 8.23542 55.6217 9.8162 54.569 10.9957C53.3622 12.3806 51.5438 13.1818 49.711 13.1895L8.61939 13.1909C7.46489 13.1827 6.2835 13.2677 5.16308 12.9206C3.0653 12.3225 1.33523 10.5915 0.7515 8.48696C0.300261 6.97003 0.465395 5.30285 1.15474 3.88192C2.04377 2.03328 3.85833 0.668042 5.88075 0.329132C6.34495 0.250405 6.81875 0.233124 7.28823 0.233124H7.28871Z" fill="white"/>
</mask>
<g mask="url(#mask0_1297_29071)">
<path d="M48.5636 3.30202C50.2102 2.82198 52.0968 3.7211 52.7823 5.28651C53.2825 6.34741 53.2057 7.64832 52.5883 8.64681C51.9259 9.7653 50.6177 10.4734 49.3159 10.3807C47.6285 10.339 46.1188 8.93675 45.921 7.26621C45.6474 5.52701 46.8561 3.7235 48.5641 3.30298L48.5636 3.30202Z" fill="#FF671F"/>
<path d="M7.06445 2.69332C8.64283 2.41825 10.3455 3.1916 11.1871 4.55444C11.5941 5.21834 10.9989 6.21058 10.2116 6.09777C9.76853 6.15538 9.4565 5.80639 9.21888 5.48572C8.63995 4.76662 7.54017 4.57988 6.74666 5.04408C5.94499 5.4742 5.49135 6.52597 5.8221 7.39052C6.07172 8.2282 6.94156 8.84841 7.81812 8.76152C8.52522 8.79225 9.06623 8.28148 9.50786 7.7928C10.095 7.22491 11.1678 7.70879 11.2183 8.49846C11.2999 9.19596 10.6792 9.68656 10.203 10.0826C8.64283 11.3091 6.21766 11.1502 4.8265 9.73697C3.40269 8.40245 3.16555 6.02769 4.30469 4.44019C4.93451 3.51131 5.95939 2.87045 7.06493 2.68996L7.06445 2.69332ZM15.0125 2.71348C17.1247 2.27376 19.3943 3.81469 19.7812 5.94176C20.3218 8.14035 18.6699 10.5343 16.445 10.8622C14.3664 11.2779 12.1553 9.8061 11.7151 7.73808C11.1102 5.52028 12.7558 3.05863 15.013 2.71396L15.0125 2.71348ZM15.41 4.8247C14.4321 4.96775 13.6645 5.92304 13.7529 6.91192C13.7927 7.92337 14.724 8.82825 15.746 8.76776C16.8707 8.82393 17.8476 7.72271 17.718 6.61382C17.6527 5.50012 16.5035 4.60148 15.41 4.8247ZM20.5335 3.6894C20.4979 2.86997 21.578 2.32608 22.2021 2.85413L24.7454 5.37147L27.1816 2.94342C27.4816 2.64579 27.9736 2.54402 28.3577 2.737C28.7647 2.91942 29.0235 3.37546 29.0019 3.81805L28.998 9.8589C29.0062 10.4815 28.3961 11.0225 27.7773 10.9174C27.2608 10.8612 26.8412 10.3817 26.8499 9.8613V6.31235L25.4688 7.67663C25.1135 8.0213 24.5279 8.06834 24.1343 7.75968C23.6033 7.32428 23.1708 6.78135 22.6605 6.32051L22.6485 9.91122C22.6514 10.5353 21.9957 11.0456 21.3932 10.9078C20.9036 10.8238 20.4874 10.3533 20.5311 9.84546L20.5339 3.68556L20.5335 3.6894ZM29.8828 3.72781C29.8626 3.12535 30.419 2.60787 31.0128 2.64435L35.2996 2.64723C35.6917 2.64723 36.0734 2.88725 36.2481 3.24248C36.5909 3.85022 36.1401 4.74837 35.4248 4.76566L32.0238 4.77766V6.08961L34.8944 6.09105C35.5684 6.06561 36.1728 6.76311 35.9793 7.42749C35.8727 7.92193 35.3855 8.27476 34.8867 8.25316C33.9329 8.25988 32.9786 8.25028 32.0247 8.2546L32.0151 9.94915C31.9805 10.601 31.2533 11.0888 30.6374 10.8737C30.3321 10.8027 30.1396 10.541 29.9543 10.3111C29.8276 9.71585 29.8904 9.10427 29.8784 8.50134L29.8832 3.72301L29.8828 3.72781ZM36.816 3.82573C36.7066 3.12007 37.4593 2.46818 38.138 2.67363C38.6075 2.80997 38.8773 3.24824 39.2229 3.55931L40.7687 5.08776L42.9783 2.89493C43.3945 2.5109 44.0858 2.57138 44.4511 2.99094C44.8351 3.38938 44.8207 4.07344 44.4242 4.45507L41.832 7.06074L41.8281 9.8469C41.8521 10.3452 41.4537 10.8051 40.9717 10.892C40.3448 11.0388 39.6603 10.4873 39.7054 9.83586L39.7025 7.06122L37.5865 4.92503C37.2744 4.6034 36.8328 4.31154 36.8165 3.82093L36.816 3.82573Z" fill="white"/>
</g>
</g>
<defs>
<clipPath id="clip0_1297_29071">
<rect width="55.6849" height="12.9611" fill="white" transform="translate(0.504395 0.233124)"/>
</clipPath>
</defs>
</svg>
