<svg width="65" height="11" viewBox="0 0 65 11" fill="none" xmlns="http://www.w3.org/2000/svg">
<mask id="mask0_1297_29060" style="mask-type:luminance" maskUnits="userSpaceOnUse" x="0" y="0" width="65" height="11">
<path d="M64.5985 0.156678L0.490723 0.156677L0.490723 10.1319L64.5985 10.1319L64.5985 0.156678Z" fill="white"/>
</mask>
<g mask="url(#mask0_1297_29060)">
<path fill-rule="evenodd" clip-rule="evenodd" d="M16.4911 6.94693L13.6758 6.94693L13.6758 5.44862L16.2048 5.44862L16.2048 4.208L13.6758 4.208L13.6758 2.78605L16.4434 2.78605L16.4434 1.52634L12.3589 1.52634L12.3589 8.20664L16.4911 8.20664L16.4911 6.94693ZM21.5899 3.82627C21.2526 3.47635 20.8232 3.30139 20.3015 3.30139C19.6525 3.30139 19.1786 3.52406 18.8795 3.96942L18.8795 3.435L17.6484 3.435L17.6484 8.20664L18.8795 8.20664L18.8795 5.62995C18.8795 5.2355 18.975 4.93965 19.1658 4.74242C19.3567 4.5452 19.6112 4.44658 19.9293 4.44658C20.2156 4.44658 20.4446 4.53247 20.6164 4.70425C20.7882 4.86967 20.8741 5.11143 20.8741 5.42954L20.8741 8.20664L22.1051 8.20664L22.1051 5.27685C22.1051 4.65972 21.9334 4.17619 21.5899 3.82627ZM29.7028 8.20664L29.7028 1.52634L30.9339 1.52634L30.9339 8.20664L29.7028 8.20664ZM32.2939 3.43321L32.2939 8.20486L33.5465 8.20486L33.5465 3.43321L32.2939 3.43321ZM36.0895 4.79014C36.0895 4.91738 36.1722 5.02236 36.3377 5.10507C36.5095 5.18142 36.7162 5.2514 36.958 5.31502C37.1997 5.37228 37.4415 5.44862 37.6833 5.54406C37.925 5.63313 38.1286 5.78582 38.294 6.00214C38.4658 6.21845 38.5517 6.48884 38.5517 6.81332C38.5517 7.30318 38.3672 7.68173 37.9982 7.949C37.6355 8.20985 37.1807 8.34024 36.6335 8.34024C35.6537 8.34024 34.9857 7.96168 34.6294 7.20459L35.6983 6.60337C35.8382 7.01691 36.15 7.22368 36.6335 7.22368C37.0725 7.22368 37.2919 7.08689 37.2919 6.81332C37.2919 6.68608 37.2061 6.58428 37.0343 6.50793C36.8689 6.42522 36.6653 6.35206 36.4235 6.28844C36.1818 6.22482 35.94 6.14528 35.6983 6.04986C35.4565 5.95442 35.2497 5.80491 35.078 5.60132C34.9125 5.39137 34.8298 5.13052 34.8298 4.81877C34.8298 4.34797 35.0016 3.97896 35.3451 3.71175C35.6951 3.43817 36.1277 3.30139 36.6431 3.30139C37.0311 3.30139 37.3842 3.39046 37.7024 3.5686C38.0204 3.74038 38.2717 3.98851 38.4563 4.31298L37.4065 4.88557C37.2538 4.5611 36.9993 4.39886 36.6431 4.39886C36.484 4.39886 36.3504 4.43386 36.2422 4.50385C36.1405 4.57383 36.0895 4.66926 36.0895 4.79014ZM43.5711 3.82627C43.2339 3.47635 42.8045 3.30139 42.2827 3.30139C41.6338 3.30139 41.1598 3.52406 40.8608 3.96942L40.8608 1.52634L39.6297 1.52634L39.6297 8.20664L40.8608 8.20664L40.8608 5.62995C40.8608 5.2355 40.9563 4.93965 41.1471 4.74242C41.338 4.5452 41.5925 4.44658 41.9105 4.44658C42.1969 4.44658 42.4259 4.53247 42.5977 4.70425C42.7695 4.86967 42.8553 5.11143 42.8553 5.42954L42.8553 8.20664L44.0864 8.20664L44.0864 5.27685C44.0864 4.65972 43.9146 4.17619 43.5711 3.82627ZM49.0408 1.52634L50.2719 1.52634L50.2719 8.20664L49.0408 8.20664L49.0408 7.64362C48.6782 8.10803 48.1628 8.34024 47.4948 8.34024C46.8522 8.34024 46.3019 8.09848 45.8438 7.61497C45.3921 7.12507 45.1662 6.52702 45.1662 5.82081C45.1662 5.11461 45.3921 4.51975 45.8438 4.03622C46.3019 3.54633 46.8522 3.30139 47.4948 3.30139C48.1628 3.30139 48.6782 3.53361 49.0408 3.99805L49.0408 1.52634ZM46.7695 6.79423C47.024 7.04235 47.3421 7.16642 47.7239 7.16642C48.1056 7.16642 48.4205 7.04235 48.6686 6.79423C48.9167 6.53975 49.0408 6.21527 49.0408 5.82081C49.0408 5.42636 48.9167 5.10507 48.6686 4.85695C48.4205 4.60246 48.1056 4.47521 47.7239 4.47521C47.3421 4.47521 47.024 4.60246 46.7695 4.85695C46.5213 5.10507 46.3973 5.42636 46.3973 5.82081C46.3973 6.21527 46.5213 6.53975 46.7695 6.79423ZM53.8957 8.34024C54.602 8.34024 55.2 8.09848 55.6899 7.61497C56.1798 7.12507 56.4247 6.52702 56.4247 5.82081C56.4247 5.11461 56.1798 4.51975 55.6899 4.03622C55.2 3.54633 54.602 3.30139 53.8957 3.30139C53.1895 3.30139 52.5915 3.54633 52.1016 4.03622C51.6181 4.51975 51.3763 5.11461 51.3763 5.82081C51.3763 6.52702 51.6181 7.12507 52.1016 7.61497C52.5915 8.09848 53.1895 8.34024 53.8957 8.34024ZM53.8957 7.13779C53.5267 7.13779 53.2182 7.01373 52.97 6.7656C52.7283 6.51747 52.6074 6.20255 52.6074 5.82081C52.6074 5.43908 52.7283 5.12415 52.97 4.87603C53.2182 4.6279 53.5267 4.50385 53.8957 4.50385C54.2647 4.50385 54.5733 4.6279 54.8214 4.87603C55.0696 5.12415 55.1936 5.43908 55.1936 5.82081C55.1936 6.20255 55.0696 6.51747 54.8214 6.7656C54.5733 7.01373 54.2647 7.13779 53.8957 7.13779ZM62.7949 3.30139C63.342 3.30139 63.7778 3.47953 64.1023 3.83581C64.4332 4.19209 64.5985 4.66926 64.5985 5.2673L64.5985 8.20664L63.3674 8.20664L63.3674 5.3532C63.3674 5.0669 63.2975 4.84422 63.1575 4.68517C63.0175 4.52611 62.8203 4.44658 62.5658 4.44658C62.2859 4.44658 62.0664 4.53884 61.9074 4.72334C61.7546 4.90784 61.6783 5.17506 61.6783 5.52497L61.6783 8.20664L60.4472 8.20664L60.4472 5.3532C60.4472 5.0669 60.3772 4.84422 60.2372 4.68517C60.0973 4.52611 59.9001 4.44658 59.6456 4.44658C59.372 4.44658 59.1525 4.53884 58.9871 4.72334C58.828 4.90784 58.7485 5.17506 58.7485 5.52497L58.7485 8.20664L57.5174 8.20664L57.5174 3.435L58.7485 3.435L58.7485 3.94079C59.0348 3.51452 59.477 3.30139 60.075 3.30139C60.6603 3.30139 61.093 3.53042 61.3729 3.98851C61.691 3.53042 62.165 3.30139 62.7949 3.30139ZM28.2868 3.43716L27.0843 3.43716L27.0843 4.02885C26.7217 3.54532 26.2127 3.30356 25.5573 3.30356C24.8894 3.30356 24.3263 3.54214 23.8682 4.0193C23.4101 4.49647 23.1811 5.07225 23.1811 5.74664C23.1811 6.4274 23.407 7.00635 23.8586 7.48351C24.3167 7.95434 24.883 8.18976 25.5573 8.18976C26.2127 8.18976 26.7217 7.94793 27.0843 7.46442L27.0843 7.8605C27.0843 8.23586 26.973 8.52535 26.7503 8.72892C26.5276 8.93248 26.2222 9.0343 25.8342 9.0343C25.2424 9.0343 24.8257 8.81164 24.584 8.36625L23.5342 8.96754C23.7441 9.34923 24.0432 9.63872 24.4313 9.83595C24.8257 10.0332 25.2806 10.1318 25.796 10.1318C26.483 10.1318 27.0684 9.93777 27.552 9.54966C28.0418 9.16155 28.2868 8.59853 28.2868 7.8605L28.2868 3.43716ZM25.7482 7.05407C25.3601 7.05407 25.0388 6.93319 24.7843 6.69143C24.5362 6.4433 24.4122 6.12837 24.4122 5.74664C24.4122 5.37127 24.5362 5.06271 24.7843 4.82094C25.0388 4.57282 25.3601 4.44875 25.7482 4.44875C26.1363 4.44875 26.4545 4.57282 26.7026 4.82094C26.9571 5.06271 27.0843 5.37127 27.0843 5.74664C27.0843 6.12837 26.9571 6.4433 26.7026 6.69143C26.4545 6.93319 26.1363 7.05407 25.7482 7.05407ZM32.9202 2.9004C33.299 2.9004 33.6061 2.5933 33.6061 2.21448C33.6061 1.83565 33.299 1.52855 32.9202 1.52855C32.5413 1.52855 32.2342 1.83565 32.2342 2.21448C32.2342 2.5933 32.5413 2.9004 32.9202 2.9004Z" fill="white"/>
<mask id="mask1_1297_29060" style="mask-type:alpha" maskUnits="userSpaceOnUse" x="0" y="0" width="11" height="10">
<path fill-rule="evenodd" clip-rule="evenodd" d="M3.22448 0.156677C1.71466 0.156677 0.490723 1.38062 0.490723 2.89044L0.490723 7.12775C0.490723 8.63759 1.71466 9.86154 3.22448 9.86154L7.4618 9.86154C8.97163 9.86154 10.1956 8.63759 10.1956 7.12775L10.1956 2.89044C10.1956 1.38062 8.97163 0.156677 7.4618 0.156677L3.22448 0.156677Z" fill="white"/>
</mask>
<g mask="url(#mask1_1297_29060)">
<path fill-rule="evenodd" clip-rule="evenodd" d="M9.01345 0.156677L1.6582 0.156677C1.0108 0.156677 0.490723 0.676739 0.490723 1.32417L0.490723 8.67941C0.490723 9.3268 1.0108 9.84686 1.6582 9.84686L9.01345 9.84686C9.66084 9.84686 10.1809 9.32145 10.1809 8.67941L10.1809 1.32417C10.1809 0.676739 9.66084 0.156677 9.01345 0.156677Z" fill="#FFD700"/>
<path d="M9.01345 0.156677L1.6582 0.156677C1.0108 0.156677 0.490723 0.676738 0.490723 1.32417L0.490723 5.00177L10.1809 5.00177L10.1809 1.32417C10.1809 0.676738 9.66084 0.156677 9.01345 0.156677Z" fill="#0057B8"/>
</g>
</g>
</svg>
