<svg width="57" height="10" viewBox="0 0 57 10" fill="none" xmlns="http://www.w3.org/2000/svg">
<path d="M6.22709 1.289H5.91255V0.485168H3.99034V1.289H3.64085C1.54389 1.289 0.21582 2.33748 0.21582 4.22474V4.57423C0.21582 6.42654 1.50894 7.47502 3.6758 7.47502H3.99034V8.27885H5.91255V7.47502H6.22709C8.359 7.47502 9.68707 6.42654 9.68707 4.53928V4.18979C9.68707 2.26758 8.359 1.25405 6.22709 1.25405V1.289ZM3.57095 6.112C2.62732 6.112 2.13803 5.51786 2.13803 4.46938V4.32959C2.13803 3.28111 2.62732 2.68697 3.57095 2.68697H3.99034V6.07705H3.57095V6.112ZM7.76486 4.46938C7.76486 5.51786 7.24062 6.112 6.29699 6.112H5.91255V2.68697H6.29699C7.24062 2.68697 7.76486 3.24616 7.76486 4.32959V4.46938ZM13.6014 2.72192C11.7491 2.72192 10.4909 3.87525 10.4909 5.51786C10.4909 7.19543 11.7491 8.3138 13.6014 8.3138C15.4537 8.3138 16.7119 7.19543 16.7119 5.51786C16.7119 3.87525 15.4537 2.72192 13.6014 2.72192ZM13.6014 6.91583C12.7976 6.91583 12.2733 6.35665 12.2733 5.51786C12.2733 4.67908 12.7976 4.11989 13.6014 4.11989C14.3703 4.11989 14.9295 4.67908 14.9295 5.51786C14.9295 6.35665 14.3703 6.91583 13.6014 6.91583ZM23.7367 2.82677H21.7096L19.6127 5.34312V2.82677H17.8652V8.20896H19.6127V5.69261L21.7096 8.20896H23.8765L21.43 5.41302L23.7367 2.82677ZM27.0569 4.11989C27.651 4.11989 28.0704 4.46938 28.2102 4.95867H29.9576C29.8178 3.6306 28.7344 2.72192 27.0918 2.72192C25.2395 2.72192 23.9813 3.87525 23.9813 5.51786C23.9813 7.19543 25.2395 8.3138 27.1268 8.3138C28.7344 8.3138 29.8178 7.40512 29.9227 6.112H28.2102C28.1398 6.36088 27.9879 6.57889 27.7787 6.73101C27.5695 6.88313 27.3153 6.96054 27.0569 6.95078C26.288 6.95078 25.7637 6.35665 25.7637 5.55281C25.7637 4.67908 26.288 4.11989 27.0569 4.11989ZM30.412 2.82677V4.25969H32.3691V8.20896H34.1166V4.25969H36.0388V2.86172H30.4469L30.412 2.82677ZM40.3026 2.79182C39.6036 2.79182 38.9746 3.07141 38.5552 3.59565V2.82677H36.9126V9.81662H38.66V7.57987C39.0794 7.99926 39.6386 8.27885 40.3026 8.27885C41.9103 8.27885 42.9937 7.12553 42.9937 5.51786C42.9937 3.9102 41.9103 2.79182 40.3026 2.79182ZM39.8832 6.95078C39.1144 6.95078 38.5552 6.35665 38.5552 5.55281C38.5552 4.67908 39.1144 4.11989 39.8832 4.11989C40.6871 4.11989 41.2113 4.67908 41.2113 5.51786C41.2113 6.35665 40.6871 6.91583 39.8832 6.91583V6.95078ZM46.943 2.72192C45.0907 2.72192 43.8325 3.87525 43.8325 5.51786C43.8325 7.19543 45.0907 8.3138 46.943 8.3138C48.7953 8.3138 50.0535 7.19543 50.0535 5.51786C50.0535 3.87525 48.7953 2.72192 46.908 2.72192H46.943ZM46.943 6.91583C46.1392 6.91583 45.6149 6.35665 45.6149 5.51786C45.6149 4.67908 46.1392 4.11989 46.943 4.11989C47.7119 4.11989 48.2711 4.67908 48.2711 5.51786C48.2711 6.35665 47.7119 6.91583 46.943 6.91583ZM50.5428 2.82677V4.25969H52.465V8.20896H54.2124V4.25969H56.1346V2.86172H50.5428V2.82677Z" fill="white"/>
</svg>
