<svg width="64" height="7" viewBox="0 0 64 7" fill="none" xmlns="http://www.w3.org/2000/svg">
<g clip-path="url(#clip0_1297_29081)">
<path d="M59.5987 3.9094L60.6974 3.9094L60.2145 2.59795C60.2 2.56042 60.1684 2.48534 60.1469 2.48534C60.125 2.48534 60.0937 2.56042 60.0769 2.59795L59.5987 3.9094ZM58.9274 1.54456C59.0915 1.15981 59.333 0.913469 60.1492 0.913469C60.6611 0.913469 61.1151 0.965083 61.3687 1.54456L63.3462 6.16399L61.5305 6.16399L61.1104 5.09653L59.1786 5.09653L58.7609 6.16399L56.9425 6.16399L58.9274 1.54456ZM55.0252 6.16399L53.4076 4.15574C53.2396 3.97455 53.1307 3.74934 53.0938 3.50823C53.1177 3.29789 53.2012 3.09815 53.3352 2.9311L54.7838 0.974467L56.8292 0.974467L54.9748 3.11643C54.7743 3.35104 54.7525 3.45662 54.7525 3.50119C54.7891 3.68423 54.8888 3.8497 55.035 3.97042L57.1117 6.16399L55.0252 6.16399ZM51.2007 0.974467L52.927 0.974467L52.927 6.16399L51.2007 6.16399L51.2007 0.974467ZM48.5277 6.16399L48.6024 3.11409C48.6024 3.0179 48.6024 2.92171 48.5277 2.92171C48.4527 2.92171 48.4359 3.00382 48.3296 3.17274L46.8108 5.69477C46.6659 5.94111 46.3978 6.22264 45.6566 6.22264C44.6036 6.22264 44.4661 5.5986 44.4661 4.97689L44.4661 0.974467L46.2216 0.974467L46.1466 3.94695L46.1466 4.02907C46.1466 4.09475 46.1466 4.20737 46.2384 4.20737C46.2818 4.20737 46.3205 4.13933 46.3905 4.02202L47.8635 1.5211C47.973 1.32123 48.1407 1.15705 48.3452 1.04901C48.5501 0.940963 48.783 0.893829 49.0153 0.913469C50.2372 0.913469 50.2829 1.77448 50.2829 2.19677L50.2829 6.16399L48.5277 6.16399ZM40.5255 6.16399L40.5255 2.26246L38.618 2.26246L38.618 0.974467L44.1594 0.974467L44.1594 2.26246L42.2518 2.26246L42.2518 6.16399L40.5255 6.16399ZM35.0369 2.22023C34.9894 2.21239 34.941 2.21484 34.8946 2.22741C34.8483 2.23999 34.8052 2.26237 34.7689 2.29296C34.7409 2.33042 34.7205 2.37293 34.7093 2.41802C34.698 2.46311 34.6963 2.50991 34.7037 2.55572L34.7037 6.16399L32.9774 6.16399L32.9774 1.72287C32.972 1.62588 32.9877 1.52892 33.0231 1.43807C33.0582 1.34723 33.1126 1.26447 33.1825 1.195C33.292 1.10607 33.4196 1.04048 33.5568 1.00249C33.6941 0.964504 33.8381 0.954955 33.9792 0.974468L37.3235 0.974468C37.6376 0.974468 37.8885 0.974467 38.1108 1.195C38.1805 1.26447 38.2348 1.34723 38.2702 1.43807C38.3056 1.52892 38.3213 1.62588 38.316 1.72287L38.316 6.16399L36.5897 6.16399L36.5897 2.55572C36.5959 2.50855 36.5923 2.46064 36.5796 2.41475C36.5666 2.36885 36.5448 2.32587 36.5147 2.28827C36.4778 2.25862 36.4347 2.23683 36.3886 2.2243C36.3426 2.21177 36.2942 2.20879 36.2466 2.21554L35.0369 2.22023ZM28.4474 4.5663C28.6888 4.90884 28.981 4.94636 29.4132 4.94636C29.8453 4.94636 30.1376 4.90884 30.379 4.5663C30.5771 4.28477 30.5771 3.99622 30.5771 3.58096C30.5771 3.12817 30.5771 2.87713 30.379 2.59326C30.1376 2.25308 29.8598 2.21554 29.4132 2.21554C28.9665 2.21554 28.6743 2.25308 28.4474 2.59326C28.2566 2.8701 28.2494 3.15163 28.2494 3.58096C28.2137 3.92121 28.2826 4.26408 28.4474 4.5663ZM31.7529 1.44838C32.3326 1.96686 32.3566 2.87244 32.3566 3.55984C32.3566 4.24725 32.3326 5.15518 31.7529 5.6713C31.1734 6.18745 30.2102 6.20623 29.4156 6.20623C28.6212 6.20623 27.6457 6.18276 27.0807 5.6713C26.5157 5.15988 26.477 4.23317 26.477 3.55984C26.477 2.88652 26.5012 1.95747 27.0807 1.44838C27.6602 0.939276 28.6067 0.91347 29.4156 0.91347C30.2247 0.91347 31.1808 0.93693 31.7529 1.44838ZM23.7292 6.16399C22.8961 6.16399 22.3383 6.05373 21.9037 5.52586C21.5825 5.1411 21.4208 4.62965 21.4208 3.63492C21.4208 2.76687 21.5053 2.11466 21.8868 1.64779C22.3697 1.04016 23.1496 0.974468 23.7509 0.974468L26.011 0.974468L26.011 2.26246L24.5839 2.26246C24.0189 2.26246 23.5988 2.26246 23.3621 2.67068C23.2305 2.96633 23.1702 3.28733 23.1859 3.60911C23.1582 3.90134 23.2029 4.19577 23.3162 4.46776C23.5577 4.87599 24.0407 4.87599 24.6129 4.87599L26.0955 4.87599L26.0955 6.16635L23.7292 6.16399ZM19.6436 6.16399L18.0258 4.15574C17.858 3.97455 17.7488 3.74934 17.7119 3.50823C17.736 3.2979 17.8196 3.09815 17.9533 2.9311L19.3901 0.974468L21.4377 0.974468L19.5832 3.11644C19.3828 3.35104 19.3611 3.45662 19.3611 3.50119C19.3977 3.68423 19.4973 3.8497 19.6436 3.97042L21.7202 6.16399L19.6436 6.16399ZM15.8188 0.974468L17.5428 0.974468L17.5428 6.16399L15.8188 6.16399L15.8188 0.974468ZM11.144 4.55458C11.3855 4.89709 11.6801 4.93464 12.1099 4.93464C12.5397 4.93464 12.8343 4.89709 13.0758 4.55458C13.2762 4.27305 13.2762 3.9845 13.2762 3.56923C13.2762 3.11644 13.2762 2.86541 13.0758 2.58153C12.8343 2.24135 12.5566 2.20381 12.1099 2.20381C11.6632 2.20381 11.3686 2.24135 11.144 2.58153C10.9533 2.85837 10.946 3.1399 10.946 3.56923C10.9116 3.90943 10.9804 4.25197 11.144 4.55458ZM9.1906 2.9311C9.18449 2.38182 9.39535 1.85117 9.77978 1.44838C10.352 0.936931 11.3131 0.91347 12.1147 0.91347C12.9164 0.91347 13.8774 0.936931 14.4497 1.44838C15.022 1.95982 15.0533 2.87244 15.0533 3.55984C15.0533 4.24725 15.0292 5.15518 14.4497 5.6713C13.8702 6.18745 12.9091 6.20623 12.1147 6.20623C11.3203 6.20623 10.3424 6.18276 9.77978 5.6713C9.38135 5.30768 9.1761 4.63903 9.1761 4.0619L8.46619 4.0619L8.46619 6.14521L6.73974 6.14521L6.73974 0.974468L8.46619 0.974468L8.46619 2.9311L9.1906 2.9311ZM2.22676 1.44838C2.44891 0.943969 3.05257 0.91347 3.38097 0.91347C3.70934 0.91347 4.3106 0.943969 4.53273 1.44838L6.58762 6.16399L4.76213 6.16399L3.46548 2.73168C3.44857 2.70118 3.41961 2.60499 3.38097 2.60499C3.34233 2.60499 3.31095 2.70118 3.29645 2.73168L2.00703 6.16399L0.174317 6.16399L2.22676 1.44838Z" fill="#0DAC49"/>
</g>
<defs>
<clipPath id="clip0_1297_29081">
<rect width="63.1719" height="5.31352" fill="white" transform="translate(0.174316 0.909119)"/>
</clipPath>
</defs>
</svg>
