<svg width="58" height="9" viewBox="0 0 58 9" fill="none" xmlns="http://www.w3.org/2000/svg">
<path fill-rule="evenodd" clip-rule="evenodd" d="M9.31492 7.97183V3.80837C9.31492 2.63065 8.68459 2.06668 7.62299 2.06668C6.74385 2.06668 5.98083 2.59748 5.63249 3.11169C5.41685 2.44819 4.88605 2.06668 4.04009 2.06668C3.16095 2.06668 2.39792 2.61407 2.14911 2.9624V2.21597H0.639648V7.97183H2.14911V4.09035C2.38134 3.77519 2.81261 3.41027 3.34341 3.41027C3.95715 3.41027 4.20596 3.79178 4.20596 4.32258V7.97183H5.73201V4.07377C5.94765 3.7586 6.39551 3.41027 6.92631 3.41027C7.54005 3.41027 7.78886 3.79178 7.78886 4.32258V7.97183H9.31492ZM13.495 8.12112C11.604 8.12112 10.4429 6.72777 10.4429 5.0856C10.4429 3.44344 11.5874 2.06668 13.495 2.06668C15.4025 2.06668 16.5471 3.46003 16.5471 5.0856C16.5471 6.72777 15.4025 8.12112 13.495 8.12112ZM13.495 6.76094C14.4405 6.76094 14.9713 5.98133 14.9713 5.06902C14.9713 4.17329 14.4405 3.39368 13.495 3.39368C12.5495 3.39368 12.0187 4.17329 12.0187 5.06902C12.0187 5.98133 12.5495 6.76094 13.495 6.76094ZM23.0825 7.97183V3.8913C23.0825 2.76335 22.4688 2.05009 21.2082 2.05009C20.2627 2.05009 19.566 2.49795 19.1845 2.94582V2.19938H17.675V7.97183H19.1845V4.09035C19.4333 3.74202 19.8977 3.41027 20.4949 3.41027C21.1418 3.41027 21.5565 3.69225 21.5565 4.48845V7.97183H23.0825ZM27.2626 8.12112C25.3716 8.12112 24.2105 6.72777 24.2105 5.0856C24.2105 3.44344 25.355 2.06668 27.2626 2.06668C29.1702 2.06668 30.3147 3.46003 30.3147 5.0856C30.3147 6.72777 29.1702 8.12112 27.2626 8.12112ZM27.2626 6.76094C28.2081 6.76094 28.7389 5.98133 28.7389 5.06902C28.7389 4.17329 28.2081 3.39368 27.2626 3.39368C26.3171 3.39368 25.7863 4.17329 25.7863 5.06902C25.7863 5.98133 26.3171 6.76094 27.2626 6.76094ZM32.9521 6.11403C33.2009 6.47896 33.7649 6.76094 34.2459 6.76094C35.1251 6.76094 35.7222 6.09744 35.7222 5.0856C35.7222 4.07377 35.1417 3.39368 34.2459 3.39368C33.7483 3.39368 33.2009 3.67567 32.9521 4.05718V6.11403ZM32.9521 7.97183H31.4427V0.00982666H32.9521V2.94582C33.4 2.36525 34.0469 2.06668 34.727 2.06668C36.2033 2.06668 37.2815 3.21122 37.2815 5.10219C37.2815 7.02634 36.1867 8.12112 34.727 8.12112C34.0303 8.12112 33.4 7.80596 32.9521 7.24198V7.97183ZM43.4188 7.97183H41.9094V7.37468C41.5113 7.83913 40.8312 8.12112 40.0847 8.12112C39.1724 8.12112 38.0777 7.50738 38.0777 6.21356C38.0777 4.86997 39.1724 4.35575 40.0847 4.35575C40.8478 4.35575 41.5279 4.60457 41.9094 5.05243V4.27282C41.9094 3.69225 41.4117 3.31074 40.6487 3.31074C40.035 3.31074 39.4544 3.54297 38.9568 3.99083L38.3762 2.97899C39.0729 2.36525 39.9852 2.06668 40.8975 2.06668C42.2079 2.06668 43.4188 2.59748 43.4188 4.25623C43.4188 4.23964 43.4188 7.97183 43.4188 7.97183ZM40.6819 7.09269C41.1795 7.09269 41.644 6.92682 41.8928 6.59507V5.88181C41.644 5.55006 41.1629 5.38418 40.6819 5.38418C40.0847 5.38418 39.5871 5.69934 39.5871 6.26332C39.6037 6.77753 40.0847 7.09269 40.6819 7.09269ZM50.3358 7.97183V3.8913C50.3358 2.76335 49.7221 2.05009 48.4614 2.05009C47.5159 2.05009 46.8193 2.49795 46.4378 2.94582V2.19938H44.9283V7.97183H46.4378V4.09035C46.6866 3.74202 47.151 3.41027 47.7482 3.41027C48.3951 3.41027 48.8098 3.69225 48.8098 4.48845V7.97183H50.3358ZM57.4685 7.97183L55.113 4.8202L57.4021 2.19938H55.5443L53.3548 4.77044V0.00982666H51.8453V7.97183H53.3548V6.49554L54.0514 5.7491L55.5775 7.97183H57.4685Z" fill="white"/>
</svg>
