<svg width="66" height="12" viewBox="0 0 66 12" fill="none" xmlns="http://www.w3.org/2000/svg">
<path d="M63.3251 7.43394C63.3251 7.43394 63.3148 5.20294 63.3148 4.66427C63.3148 3.47245 62.3329 2.87213 61.1132 2.87213C59.5897 2.87213 58.9116 3.66326 58.8352 4.43824L60.0256 4.43824C60.1973 4.06836 60.5055 3.98763 61.0985 3.98763C61.8485 3.98763 62.17 4.20193 62.17 4.55712C62.1714 4.59828 62.1642 4.63928 62.1488 4.67747C62.1334 4.71565 62.1101 4.75016 62.0805 4.77876C61.9292 4.89851 61.7489 4.976 61.5579 5.00332C61.2883 5.05673 61.015 5.08912 60.7404 5.1002C60.6068 5.109 60.4688 5.11781 60.3294 5.13102C59.7717 5.20294 58.4565 5.44512 58.4565 6.89234C58.4565 7.84051 59.1068 8.74172 60.5995 8.74172C61.1893 8.74064 61.7618 8.54224 62.2258 8.1781C62.259 8.33081 62.3113 8.47874 62.3813 8.61843L63.5482 8.61843C63.4323 8.43055 63.3163 7.7818 63.3251 7.43394ZM62.1759 5.93389C62.1759 5.96911 62.1759 6.00581 62.1759 6.03957L62.1759 6.16579C62.1886 6.36348 62.1683 6.56191 62.1157 6.7529C62.0714 6.88532 62.0012 7.00763 61.9092 7.1127C61.8173 7.21777 61.7053 7.30352 61.5799 7.36496C61.2905 7.53159 60.9642 7.62387 60.6303 7.63356C60.1048 7.63356 59.6513 7.28129 59.6513 6.92463C59.6392 6.84956 59.6425 6.7728 59.6612 6.69908C59.6799 6.62536 59.7135 6.55626 59.7599 6.49604C59.8904 6.37943 60.0486 6.29809 60.2193 6.25973C60.457 6.20456 60.6992 6.17066 60.9429 6.15846C61.1191 6.14378 61.3011 6.1291 61.4787 6.09828C61.7206 6.0659 61.9559 5.99556 62.1759 5.88985L62.1759 5.93389Z" fill="#CF0C2E"/>
<path d="M34.2719 6.31115C34.2719 7.09787 33.8815 7.63214 33.1124 7.63214C32.3946 7.63214 32.0482 7.15658 32.0482 6.33757L32.0482 3.00281L30.874 3.00281C30.874 3.00281 30.874 6.17465 30.874 6.36986C30.874 7.54407 31.5008 8.74323 32.9891 8.74323C33.4671 8.75636 33.9333 8.59398 34.2998 8.28676L34.2998 8.61554L35.4549 8.61554L35.4549 3.00281L34.2719 3.00281C34.2719 3.00281 34.2719 6.00879 34.2719 6.31115Z" fill="#CF0C2E"/>
<path d="M28.6738 6.31115C28.6738 7.09787 28.3303 7.63214 27.6258 7.63214C26.9491 7.63214 26.6732 7.15658 26.6732 6.33757L26.6732 3.00281L25.499 3.00281L25.499 6.33316C25.499 7.10668 25.1497 7.6292 24.4525 7.6292C23.7553 7.6292 23.4984 7.15364 23.4984 6.33463C23.4984 5.82091 23.4984 3.00281 23.4984 3.00281L22.3242 3.00281L22.3242 6.36986C22.3242 7.54407 22.9113 8.74323 24.3292 8.74323C25.0102 8.74323 25.6502 8.37776 25.9437 7.95358C26.1151 8.20741 26.3486 8.4132 26.6219 8.55141C26.8953 8.68962 27.1994 8.75565 27.5054 8.74323C27.9494 8.75074 28.3792 8.58731 28.7061 8.28676L28.7061 8.61554L29.8685 8.61554L29.8685 3.00281L28.6767 3.00281C28.6767 3.00281 28.6738 6.00879 28.6738 6.31115Z" fill="#CF0C2E"/>
<path d="M55.7701 5.38048L58.6587 8.60956L57.0221 8.60956L54.7089 5.98227L54.7089 8.61837L53.5142 8.61837L53.5142 1.01389L54.706 1.01389L54.706 4.8741L56.7286 2.87207L58.3666 2.87207L55.7701 5.38048Z" fill="#CF0C2E"/>
<path d="M12.7308 2.87213C11.1163 2.87213 9.86865 4.19312 9.86865 5.80766C9.86865 7.4222 11.1089 8.74319 12.7308 8.74319C14.3527 8.74319 15.5929 7.4222 15.5929 5.80766C15.5929 4.19312 14.3527 2.87213 12.7308 2.87213ZM12.7308 7.63062C11.7665 7.63062 11.059 6.80574 11.059 5.80913C11.059 4.81252 11.7665 3.9891 12.7308 3.9891C13.6951 3.9891 14.4026 4.81398 14.4026 5.80913C14.4026 6.80427 13.6936 7.63062 12.7308 7.63062Z" fill="#CF0C2E"/>
<path d="M40.1286 3.00281L41.3175 3.00281L41.3175 8.61847L40.1286 8.61847L40.1286 6.25244L37.8154 6.25244L37.8154 8.61847L36.6206 8.61847L36.6206 3.00281L37.8124 3.00281L37.8124 5.13987L40.1286 5.13987L40.1286 3.00281Z" fill="#CF0C2E"/>
<path d="M50.7266 4.53222L49.4379 4.53222L49.4379 3.00281L48.2461 3.00281L48.2461 8.74764L50.7266 8.74764C51.2856 8.74764 51.8217 8.52557 52.217 8.1303C52.6123 7.73503 52.8343 7.19893 52.8343 6.63993C52.8343 6.08093 52.6123 5.54482 52.217 5.14955C51.8217 4.75428 51.2856 4.53222 50.7266 4.53222ZM50.6459 7.63507L49.4379 7.63507L49.4379 5.64478L50.6459 5.64478C50.9098 5.64478 51.1629 5.74963 51.3496 5.93625C51.5362 6.12288 51.641 6.376 51.641 6.63993C51.641 6.90386 51.5362 7.15697 51.3496 7.3436C51.1629 7.53023 50.9098 7.63507 50.6459 7.63507Z" fill="#CF0C2E"/>
<path d="M44.8809 7.63059C43.9166 7.63059 43.3456 6.80571 43.3456 5.8091C43.3456 4.81249 43.9166 3.98907 44.8809 3.98907C45.672 3.98907 46.0228 4.29143 46.1652 4.62021L47.3834 4.62021C47.2044 3.67937 46.2533 2.8721 44.8809 2.8721C43.2576 2.8721 42.1553 4.19309 42.1553 5.80763C42.1553 7.42217 43.2576 8.74316 44.8809 8.74316C46.3061 8.74316 47.2367 7.92561 47.4069 6.81305L46.1946 6.81305C46.0654 7.27099 45.6852 7.63059 44.8809 7.63059Z" fill="#CF0C2E"/>
<path d="M18.9193 2.87067C18.3716 2.85935 17.8401 3.05663 17.4325 3.42255C17.4325 3.39319 17.4325 3.36237 17.4325 3.33302L17.4325 3.00277L16.2773 3.00277L16.2773 10.6073L17.4692 10.6073L17.4692 8.22948C17.8732 8.57289 18.3892 8.7562 18.9193 8.74466C20.5339 8.74466 21.6171 7.42367 21.6171 5.80913C21.6171 4.19459 20.5412 2.87067 18.9193 2.87067ZM18.9193 7.62916C17.9565 7.62916 17.4119 6.80281 17.4119 5.80767C17.4119 4.81252 17.9565 3.98617 18.9193 3.98617C19.8822 3.98617 20.4267 4.81252 20.4267 5.80767C20.4267 6.80281 19.888 7.62916 18.9193 7.62916Z" fill="#CF0C2E"/>
<path d="M8.03731 3.01306L7.95658 3.10113L6.44919 4.72447C6.31717 4.86837 6.19737 5.02302 6.09106 5.18682C5.98338 5.02321 5.86262 4.86859 5.72999 4.72447L4.21819 3.10113L4.13599 3.01306L3.02783 3.01306L3.02783 8.61845L4.21819 8.61845L4.21819 4.82135C4.47434 5.05906 4.7123 5.31566 4.93005 5.58899C5.28215 6.03191 5.51553 6.55728 5.60816 7.11546L6.56661 7.11546C6.65862 6.55709 6.89207 6.03157 7.24472 5.58899C7.46247 5.31566 7.70043 5.05906 7.95658 4.82135L7.95658 8.61845L9.14547 8.61845L9.14547 3.01306L8.03731 3.01306Z" fill="#CF0C2E"/>
</svg>
