<svg width="58" height="24" viewBox="0 0 58 24" fill="none" xmlns="http://www.w3.org/2000/svg">
<path d="M32.4967 9.22275L31.7642 11.8997C31.7025 12.1356 31.4888 13.1177 31.417 13.8362H31.3532C31.2814 13.0561 31.0863 12.2141 31.0042 11.8446L30.4192 9.22305H28.5555L27.9705 11.8446C27.8884 12.2141 27.6933 13.0561 27.6215 13.8362H27.5578C27.4859 13.1177 27.2722 12.1359 27.2106 11.8997L26.478 9.22275H24.335L26.2543 15.3197C26.4903 16.0691 26.8805 16.459 27.5475 16.459C28.2044 16.459 28.6252 16.0483 28.7897 15.3197L29.077 14.0775C29.2003 13.5542 29.3746 12.7946 29.4567 12.2198H29.5183C29.6004 12.7946 29.775 13.5542 29.898 14.0775L30.1854 15.3197C30.3597 16.0483 30.7704 16.459 31.4275 16.459C32.0945 16.459 32.4847 16.0688 32.7207 15.3197L34.6401 9.22275H32.4967Z" fill="white"/>
<path d="M38.3039 9.06891C36.1278 9.06891 34.4546 10.6805 34.4546 12.764C34.4546 14.8478 36.1278 16.459 38.3039 16.459C40.48 16.459 42.1531 14.8475 42.1531 12.764C42.1531 10.6805 40.48 9.06891 38.3039 9.06891ZM38.3039 14.6629C37.2364 14.6629 36.4049 13.8314 36.4049 12.764C36.4049 11.6965 37.2364 10.865 38.3039 10.865C39.3713 10.865 40.2028 11.6965 40.2028 12.764C40.2028 13.8317 39.3713 14.6629 38.3039 14.6629Z" fill="white"/>
<path d="M50.1184 12.2302H45.9817V13.6879H48.2495C48.1386 14.2235 47.4679 14.7451 46.5462 14.7451C45.2696 14.7451 44.5857 13.8829 44.5857 12.7641C44.5857 11.6864 45.4069 10.8549 46.5153 10.8549C47.2851 10.8549 47.8701 11.2451 48.1885 11.8403L49.9641 11.1117C49.338 9.88007 48.1782 9.06903 46.5153 9.06903C44.3596 9.06903 42.666 10.6704 42.666 12.7641C42.666 14.8581 44.2878 16.4591 46.5153 16.4591C48.9586 16.4591 50.529 14.5398 50.1184 12.2302Z" fill="white"/>
<path d="M19.6573 4.83839C18.3659 4.83839 17.3188 5.88541 17.3188 7.17682C17.3188 7.54897 17.4063 7.90098 17.5611 8.21331L19.6573 12.4621L21.7537 8.21331C21.9085 7.90098 21.996 7.54897 21.996 7.17682C21.9957 5.88541 20.9487 4.83839 19.6573 4.83839Z" fill="#8BC53F"/>
<path d="M12.1833 15.0275L10.2789 18.8843L5.00987 8.21425C4.43782 7.05571 4.91338 5.65308 6.07162 5.08102C7.23015 4.50897 8.63279 4.98453 9.20484 6.14277L12.183 12.1744C12.6273 13.0736 12.6272 14.1284 12.1833 15.0275Z" fill="white"/>
<path d="M18.4564 15.0275L16.552 18.8843L11.2833 8.21423C10.7113 7.0557 11.1868 5.65306 12.3451 5.08101C13.5036 4.50895 14.9062 4.98451 15.4783 6.14275L18.4564 12.1744C18.9004 13.0735 18.9004 14.1284 18.4564 15.0275Z" fill="white"/>
</svg>
